<?xml version="1.0" encoding="utf-8"?>
<!-- Generator: Adobe Illustrator 23.0.3, SVG Export Plug-In . SVG Version: 6.00 Build 0)  -->
<svg version="1.1" id="Layer_1" xmlns="http://www.w3.org/2000/svg" xmlns:xlink="http://www.w3.org/1999/xlink" x="0px" y="0px"
	 viewBox="0 0 144 22.51" style="enable-background:new 0 0 144 22.51;" xml:space="preserve">
<style type="text/css">
	.st0{fill:#54565A;}
	.st1{fill-rule:evenodd;clip-rule:evenodd;fill:#54565A;}
	.st2{fill-rule:evenodd;clip-rule:evenodd;fill:#009490;}
</style>
<g>
	<g id="LOGOTYPE">
		<path id="REGISTRATION_1_" class="st0" d="M142.35,8.15c0.16,0.02,0.16,0.01,0.16,0.16v0.78c0,0.14,0,0.14-0.16,0.16v0.05h0.53
			V9.24c-0.16-0.02-0.16-0.02-0.16-0.16V8.77h0.16c0.21,0.31,0.29,0.53,0.4,0.53h0.21V9.27c-0.06-0.05-0.16-0.16-0.25-0.28
			l-0.19-0.26c0.15-0.05,0.26-0.17,0.26-0.34c0-0.2-0.18-0.3-0.38-0.3h-0.58V8.15L142.35,8.15z M142.72,8.16h0.13
			c0.13,0,0.23,0.06,0.23,0.25c0,0.17-0.07,0.3-0.23,0.3h-0.14V8.16L142.72,8.16z M144,8.71c0-0.62-0.49-1.12-1.11-1.12
			c-0.63,0-1.13,0.5-1.13,1.12c0,0.62,0.49,1.12,1.13,1.12C143.51,9.83,144,9.33,144,8.71L144,8.71z M143.82,8.71
			c0,0.52-0.42,0.98-0.93,0.98c-0.53,0-0.95-0.46-0.95-0.98c0-0.52,0.41-0.99,0.95-0.99C143.41,7.73,143.82,8.19,143.82,8.71
			L143.82,8.71z"/>
		<g id="_x22_MUTUAL_x22_">
			<path class="st0" d="M139.92,10.8c0-1.67,0-1.98,0.02-2.33c0.02-0.39,0.11-0.57,0.41-0.63c0.13-0.02,0.31-0.03,0.43-0.03
				c0.13,0,0.2-0.02,0.2-0.1c0-0.08-0.08-0.1-0.23-0.1c-0.43,0-1.23,0.03-1.5,0.03c-0.3,0-0.99-0.03-1.51-0.03
				c-0.16,0-0.24,0.02-0.24,0.1c0,0.08,0.07,0.1,0.19,0.1c0.14,0,0.28,0.01,0.36,0.03c0.36,0.08,0.45,0.25,0.47,0.63
				c0.02,0.35,0.02,0.66,0.02,2.33v1.94c0,1.01,0,1.88-0.06,2.34c-0.04,0.32-0.1,0.56-0.32,0.61c-0.1,0.02-0.23,0.04-0.4,0.04
				c-0.13,0-0.18,0.03-0.18,0.09c0,0.08,0.08,0.11,0.22,0.11c0.44,0,1.13-0.03,1.39-0.03c0.89,0,1.62,0.07,3.2,0.07
				c0.57,0,0.63-0.05,0.69-0.3c0.09-0.32,0.16-1.14,0.16-1.27c0-0.13-0.01-0.19-0.09-0.19c-0.09,0-0.11,0.07-0.12,0.16
				c-0.02,0.21-0.15,0.52-0.29,0.66c-0.27,0.3-0.7,0.31-1.29,0.31c-0.86,0-1.14-0.08-1.33-0.24c-0.23-0.2-0.23-0.96-0.23-2.37V10.8
				L139.92,10.8z"/>
			<path class="st1" d="M133.79,13.06c0.05,0,0.09,0.02,0.11,0.08l0.88,2.33c0.05,0.13-0.02,0.23-0.1,0.25
				c-0.11,0.01-0.15,0.03-0.15,0.1c0,0.08,0.13,0.08,0.33,0.09c0.88,0.02,1.68,0.02,2.08,0.02c0.41,0,0.51-0.02,0.51-0.11
				c0-0.08-0.05-0.09-0.14-0.09c-0.13,0-0.3-0.01-0.46-0.04c-0.23-0.06-0.55-0.21-0.97-1.2c-0.7-1.67-2.47-6.16-2.73-6.77
				c-0.11-0.25-0.18-0.35-0.27-0.35c-0.11,0-0.18,0.12-0.31,0.44l-2.76,6.91c-0.22,0.55-0.43,0.92-0.94,0.99
				c-0.09,0.01-0.24,0.02-0.34,0.02c-0.09,0-0.13,0.02-0.13,0.09c0,0.09,0.07,0.11,0.21,0.11c0.57,0,1.18-0.03,1.3-0.03
				c0.34,0,0.81,0.03,1.17,0.03c0.12,0,0.19-0.02,0.19-0.11c0-0.07-0.03-0.09-0.16-0.09h-0.17c-0.34,0-0.44-0.14-0.44-0.34
				c0-0.13,0.05-0.4,0.16-0.67l0.59-1.57c0.02-0.07,0.04-0.09,0.1-0.09H133.79L133.79,13.06z M131.56,12.51
				c-0.04,0-0.05-0.03-0.04-0.08l1.01-2.71c0.01-0.04,0.03-0.1,0.07-0.1c0.03,0,0.04,0.05,0.05,0.1l0.99,2.72
				c0.01,0.03,0,0.07-0.05,0.07H131.56L131.56,12.51z"/>
			<path class="st0" d="M121.25,12.41c0,1.6,0.42,2.41,0.98,2.92c0.8,0.73,1.86,0.76,2.44,0.76c0.71,0,1.51-0.12,2.29-0.79
				c0.92-0.79,1.05-2.09,1.05-3.31V10.8c0-1.67,0-1.98,0.02-2.33c0.02-0.39,0.11-0.57,0.41-0.63c0.13-0.02,0.2-0.03,0.32-0.03
				c0.13,0,0.2-0.02,0.2-0.1c0-0.08-0.08-0.1-0.23-0.1c-0.43,0-1.12,0.03-1.25,0.03c-0.01,0-0.7-0.03-1.27-0.03
				c-0.15,0-0.23,0.02-0.23,0.1c0,0.08,0.07,0.1,0.19,0.1c0.12,0,0.31,0.01,0.4,0.03c0.36,0.08,0.45,0.25,0.47,0.63
				c0.02,0.35,0.02,0.66,0.02,2.33v1.38c0,1.13-0.03,2.12-0.64,2.73c-0.44,0.44-1.03,0.59-1.52,0.59c-0.37,0-0.88-0.04-1.38-0.45
				c-0.54-0.44-0.86-1.11-0.86-2.71V10.8c0-1.67,0-1.98,0.02-2.33c0.02-0.39,0.11-0.57,0.41-0.63c0.13-0.02,0.2-0.03,0.32-0.03
				c0.11,0,0.18-0.02,0.18-0.1c0-0.08-0.08-0.1-0.24-0.1c-0.4,0-1.09,0.03-1.35,0.03c-0.33,0-1.02-0.03-1.61-0.03
				c-0.17,0-0.24,0.02-0.24,0.1c0,0.08,0.07,0.1,0.19,0.1c0.15,0,0.34,0.01,0.43,0.03c0.36,0.08,0.45,0.25,0.47,0.63
				c0.02,0.35,0.02,0.66,0.02,2.33V12.41L121.25,12.41z"/>
			<path class="st0" d="M115.43,12.74c0,1.01,0,1.88-0.05,2.34c-0.03,0.32-0.1,0.56-0.32,0.61c-0.1,0.02-0.23,0.04-0.4,0.04
				c-0.13,0-0.18,0.03-0.18,0.09c0,0.08,0.08,0.11,0.22,0.11c0.44,0,1.13-0.03,1.39-0.03c0.31,0,1,0.03,1.73,0.03
				c0.12,0,0.21-0.03,0.21-0.11c0-0.05-0.05-0.09-0.18-0.09c-0.16,0-0.41-0.02-0.56-0.04c-0.33-0.04-0.4-0.29-0.43-0.59
				c-0.05-0.47-0.05-1.34-0.05-2.35V8.22l1.39,0.03c0.98,0.02,1.28,0.33,1.3,0.62l0.01,0.12c0.01,0.17,0.03,0.22,0.12,0.22
				c0.07,0,0.09-0.07,0.1-0.18c0-0.29,0.03-1.05,0.03-1.28c0-0.17-0.01-0.23-0.09-0.23c-0.04,0-0.13,0.02-0.3,0.05
				c-0.16,0.02-0.41,0.05-0.76,0.05h-4.36c-0.36,0-0.78-0.02-1.1-0.05c-0.28-0.02-0.39-0.13-0.47-0.13c-0.07,0-0.1,0.07-0.13,0.21
				c-0.02,0.09-0.23,1.09-0.23,1.27c0,0.12,0.02,0.18,0.1,0.18c0.07,0,0.1-0.04,0.12-0.13c0.02-0.09,0.08-0.22,0.19-0.39
				c0.16-0.24,0.43-0.3,1.07-0.32l1.64-0.04V12.74L115.43,12.74z"/>
			<path class="st0" d="M104.17,12.41c0,1.6,0.42,2.41,0.98,2.92c0.8,0.73,1.86,0.76,2.44,0.76c0.72,0,1.51-0.12,2.29-0.79
				c0.92-0.79,1.05-2.09,1.05-3.31V10.8c0-1.67,0-1.98,0.02-2.33c0.02-0.39,0.11-0.57,0.41-0.63c0.13-0.02,0.2-0.03,0.32-0.03
				c0.13,0,0.2-0.02,0.2-0.1c0-0.08-0.08-0.1-0.23-0.1c-0.43,0-1.12,0.03-1.25,0.03c-0.01,0-0.7-0.03-1.27-0.03
				c-0.15,0-0.23,0.02-0.23,0.1c0,0.08,0.07,0.1,0.19,0.1c0.12,0,0.31,0.01,0.4,0.03c0.36,0.08,0.45,0.25,0.47,0.63
				c0.02,0.35,0.02,0.66,0.02,2.33v1.38c0,1.13-0.03,2.12-0.64,2.73c-0.44,0.44-1.03,0.59-1.52,0.59c-0.37,0-0.88-0.04-1.38-0.45
				c-0.54-0.44-0.86-1.11-0.86-2.71V10.8c0-1.67,0-1.98,0.02-2.33c0.02-0.39,0.11-0.57,0.41-0.63c0.13-0.02,0.2-0.03,0.32-0.03
				c0.11,0,0.18-0.02,0.18-0.1c0-0.08-0.08-0.1-0.24-0.1c-0.4,0-1.09,0.03-1.35,0.03c-0.33,0-1.02-0.03-1.61-0.03
				c-0.16,0-0.24,0.02-0.24,0.1c0,0.08,0.07,0.1,0.19,0.1c0.15,0,0.34,0.01,0.43,0.03c0.36,0.08,0.45,0.25,0.47,0.63
				c0.02,0.35,0.02,0.66,0.02,2.33V12.41L104.17,12.41z"/>
			<path class="st0" d="M90.44,14.59c-0.07,0.46-0.17,0.98-0.55,1.06c-0.2,0.04-0.3,0.04-0.4,0.04c-0.13,0-0.22,0.03-0.22,0.09
				c0,0.12,0.11,0.15,0.24,0.15c0.43,0,1.07-0.04,1.33-0.04c0.24,0,0.85,0.04,1.41,0.04c0.2,0,0.32-0.03,0.32-0.15
				c0-0.07-0.09-0.09-0.2-0.09c-0.13,0-0.32-0.01-0.56-0.07c-0.23-0.05-0.4-0.18-0.4-0.43c0-0.21,0.01-0.39,0.04-0.63l0.7-5.34h0.05
				c0.47,1.01,1.28,2.7,1.4,2.98c0.16,0.38,1.22,2.43,1.54,3.05c0.22,0.4,0.35,0.67,0.47,0.67c0.12,0,0.19-0.12,0.5-0.75l2.93-6.1
				h0.05l0.81,5.91c0.05,0.38,0.01,0.55-0.07,0.58c-0.09,0.04-0.15,0.08-0.15,0.15c0,0.08,0.08,0.12,0.39,0.15
				c0.54,0.04,2.39,0.08,2.73,0.08c0.19,0,0.35-0.04,0.35-0.15c0-0.08-0.09-0.09-0.22-0.09c-0.17,0-0.44-0.01-0.83-0.13
				c-0.4-0.12-0.54-0.51-0.66-1.36l-1.22-8.3c-0.04-0.28-0.12-0.42-0.24-0.42c-0.12,0-0.2,0.11-0.3,0.32l-3.65,7.67L92.36,5.9
				C92.19,5.55,92.11,5.49,92,5.49c-0.11,0-0.19,0.12-0.23,0.35L90.44,14.59L90.44,14.59z"/>
		</g>
		<g id="_x22_MEDICAL_x22_">
			<path class="st0" d="M82.41,10.8c0-1.67,0-1.98,0.02-2.33c0.02-0.39,0.11-0.57,0.41-0.63c0.13-0.02,0.31-0.03,0.43-0.03
				c0.13,0,0.2-0.02,0.2-0.1c0-0.08-0.08-0.1-0.23-0.1c-0.43,0-1.23,0.03-1.5,0.03c-0.3,0-0.99-0.03-1.51-0.03
				c-0.16,0-0.24,0.02-0.24,0.1c0,0.08,0.07,0.1,0.19,0.1c0.14,0,0.28,0.01,0.36,0.03c0.36,0.08,0.45,0.25,0.47,0.63
				c0.02,0.35,0.02,0.66,0.02,2.33v1.94c0,1.01,0,1.88-0.05,2.34c-0.04,0.32-0.1,0.56-0.32,0.61c-0.1,0.02-0.23,0.04-0.4,0.04
				c-0.13,0-0.18,0.03-0.18,0.09c0,0.08,0.08,0.11,0.22,0.11c0.44,0,1.13-0.03,1.39-0.03c0.89,0,1.62,0.07,3.2,0.07
				c0.57,0,0.63-0.05,0.69-0.3c0.09-0.32,0.16-1.14,0.16-1.27c0-0.13-0.01-0.19-0.09-0.19c-0.09,0-0.11,0.07-0.12,0.16
				c-0.02,0.21-0.15,0.52-0.29,0.66c-0.27,0.3-0.7,0.31-1.29,0.31c-0.86,0-1.14-0.08-1.33-0.24c-0.23-0.2-0.23-0.96-0.23-2.37V10.8
				L82.41,10.8z"/>
			<path class="st1" d="M76.28,13.06c0.05,0,0.09,0.02,0.11,0.08l0.88,2.33c0.05,0.13-0.02,0.23-0.1,0.25
				c-0.11,0.01-0.15,0.03-0.15,0.1c0,0.08,0.13,0.08,0.33,0.09c0.88,0.02,1.68,0.02,2.08,0.02c0.41,0,0.51-0.02,0.51-0.11
				c0-0.08-0.05-0.09-0.14-0.09c-0.13,0-0.3-0.01-0.46-0.04c-0.23-0.06-0.55-0.21-0.97-1.2c-0.7-1.67-2.47-6.16-2.73-6.77
				c-0.11-0.25-0.18-0.35-0.27-0.35c-0.11,0-0.18,0.12-0.31,0.44l-2.76,6.91c-0.22,0.55-0.43,0.92-0.93,0.99
				c-0.09,0.01-0.24,0.02-0.34,0.02c-0.09,0-0.13,0.02-0.13,0.09c0,0.09,0.07,0.11,0.21,0.11c0.57,0,1.18-0.03,1.3-0.03
				c0.34,0,0.81,0.03,1.17,0.03c0.12,0,0.19-0.02,0.19-0.11c0-0.07-0.03-0.09-0.17-0.09h-0.16c-0.34,0-0.44-0.14-0.44-0.34
				c0-0.13,0.05-0.4,0.17-0.67l0.59-1.57c0.02-0.07,0.04-0.09,0.1-0.09H76.28L76.28,13.06z M74.05,12.51
				c-0.04,0-0.06-0.03-0.04-0.08l1.01-2.71c0.01-0.04,0.03-0.1,0.07-0.1s0.04,0.05,0.05,0.1l0.99,2.72c0.01,0.03,0,0.07-0.05,0.07
				H74.05L74.05,12.51z"/>
			<path class="st0" d="M68.25,16.08c0.7,0,1.54-0.08,1.98-0.25c0.19-0.08,0.23-0.13,0.29-0.32c0.11-0.37,0.24-1.33,0.24-1.46
				c0-0.09-0.02-0.16-0.1-0.16c-0.09,0-0.11,0.04-0.14,0.22c-0.04,0.2-0.19,0.52-0.37,0.73c-0.44,0.51-1.03,0.62-2.01,0.62
				c-1.47,0-3.47-1.3-3.47-3.92c0-1.07,0.21-2.11,1.01-2.85c0.48-0.44,1.11-0.68,2.07-0.68c1.01,0,1.87,0.3,2.23,0.68
				c0.28,0.29,0.42,0.67,0.43,1.01c0,0.15,0.02,0.24,0.11,0.24c0.1,0,0.12-0.09,0.13-0.25c0.02-0.22,0.01-0.83,0.03-1.19
				c0.02-0.39,0.05-0.52,0.05-0.61c0-0.07-0.04-0.12-0.17-0.13c-0.33-0.03-0.68-0.13-1.1-0.19c-0.51-0.07-0.91-0.11-1.6-0.11
				c-1.64,0-2.69,0.44-3.48,1.17c-1.06,0.97-1.29,2.27-1.29,3.02c0,1.07,0.29,2.3,1.36,3.25C65.48,15.75,66.74,16.08,68.25,16.08
				L68.25,16.08z"/>
			<path class="st0" d="M59.5,12.74c0,1.07,0,1.94-0.05,2.4c-0.03,0.32-0.1,0.51-0.32,0.55c-0.1,0.02-0.23,0.04-0.4,0.04
				c-0.13,0-0.18,0.03-0.18,0.09c0,0.08,0.08,0.11,0.22,0.11c0.44,0,1.13-0.03,1.39-0.03c0.3,0,0.99,0.03,1.72,0.03
				c0.12,0,0.21-0.03,0.21-0.11c0-0.05-0.06-0.09-0.18-0.09c-0.17,0-0.41-0.02-0.56-0.04c-0.33-0.04-0.41-0.24-0.44-0.54
				c-0.04-0.47-0.04-1.34-0.04-2.41V10.8c0-1.67,0-1.98,0.02-2.33C60.91,8.08,61,7.89,61.3,7.84c0.13-0.02,0.22-0.03,0.33-0.03
				c0.11,0,0.18-0.02,0.18-0.11c0-0.07-0.09-0.09-0.23-0.09c-0.42,0-1.07,0.03-1.34,0.03c-0.32,0-1.01-0.03-1.43-0.03
				c-0.18,0-0.26,0.02-0.26,0.09c0,0.09,0.07,0.11,0.18,0.11c0.13,0,0.28,0.01,0.4,0.04c0.24,0.06,0.35,0.24,0.37,0.62
				c0.02,0.35,0.02,0.66,0.02,2.33V12.74L59.5,12.74z"/>
			<path class="st1" d="M49.37,12.74c0,1.01,0,1.88-0.06,2.34c-0.04,0.32-0.1,0.56-0.32,0.61c-0.1,0.02-0.23,0.04-0.4,0.04
				c-0.13,0-0.18,0.03-0.18,0.09c0,0.08,0.08,0.11,0.22,0.11c0.44,0,1.13-0.03,1.39-0.03c0.55,0,1.54,0.13,2.34,0.13
				c2.04,0,3.18-0.78,3.69-1.3c0.62-0.63,1.2-1.68,1.2-3.07c0-1.31-0.52-2.22-1.07-2.8c-1.2-1.25-3.04-1.25-4.41-1.25
				c-0.66,0-1.35,0.03-1.69,0.03c-0.31,0-1-0.03-1.58-0.03c-0.17,0-0.24,0.02-0.24,0.1c0,0.08,0.07,0.1,0.19,0.1
				c0.15,0,0.34,0.01,0.43,0.03c0.36,0.08,0.45,0.25,0.47,0.63c0.02,0.35,0.02,0.66,0.02,2.33V12.74L49.37,12.74z M50.75,10.62
				c0-0.87,0-1.83,0.01-2.2c0-0.12,0.03-0.18,0.13-0.22c0.09-0.04,0.5-0.08,0.72-0.08c0.86,0,2.11,0.13,3.13,1.1
				c0.47,0.45,1.06,1.35,1.06,2.75c0,1.13-0.22,2.13-0.92,2.74c-0.66,0.57-1.41,0.79-2.53,0.79c-0.87,0-1.3-0.23-1.44-0.44
				c-0.09-0.12-0.11-0.56-0.12-0.84c-0.01-0.21-0.02-1.06-0.02-2.22V10.62L50.75,10.62z"/>
			<path class="st0" d="M42.47,12.74c0,1.01,0,1.88-0.06,2.34c-0.04,0.32-0.1,0.56-0.32,0.61c-0.1,0.02-0.23,0.04-0.4,0.04
				c-0.13,0-0.18,0.03-0.18,0.09c0,0.08,0.08,0.11,0.22,0.11c0.44,0,1.13-0.03,1.39-0.03c0.65,0,1.39,0.07,3.05,0.07
				c0.42,0,0.52,0,0.59-0.29c0.05-0.22,0.14-0.97,0.14-1.22c0-0.11,0-0.2-0.09-0.2c-0.08,0-0.1,0.04-0.12,0.17
				c-0.08,0.45-0.21,0.68-0.5,0.81c-0.29,0.13-0.75,0.13-1.03,0.13c-1.12,0-1.3-0.17-1.32-0.92c-0.01-0.32,0-1.33,0-1.71v-0.87
				c0-0.07,0.01-0.11,0.07-0.11c0.26,0,1.35,0.01,1.56,0.03c0.41,0.04,0.56,0.21,0.62,0.43c0.03,0.14,0.03,0.29,0.04,0.4
				c0,0.05,0.02,0.1,0.1,0.1c0.1,0,0.1-0.12,0.1-0.21c0-0.08,0.02-0.52,0.04-0.74c0.03-0.56,0.09-0.74,0.09-0.8
				c0-0.07-0.03-0.09-0.08-0.09c-0.06,0-0.1,0.05-0.18,0.14c-0.1,0.11-0.26,0.14-0.53,0.16c-0.25,0.02-1.52,0.02-1.76,0.02
				c-0.07,0-0.08-0.04-0.08-0.12V8.3c0-0.08,0.02-0.11,0.08-0.11c0.22,0,1.38,0.02,1.56,0.04c0.55,0.07,0.66,0.2,0.74,0.4
				c0.05,0.13,0.07,0.32,0.07,0.4c0,0.1,0.02,0.15,0.1,0.15c0.08,0,0.1-0.07,0.11-0.12c0.02-0.13,0.04-0.62,0.05-0.73
				c0.03-0.51,0.09-0.64,0.09-0.72c0-0.06-0.01-0.1-0.07-0.1c-0.05,0-0.12,0.03-0.18,0.04c-0.09,0.02-0.26,0.04-0.47,0.07
				c-0.21,0.01-2.4,0.01-2.75,0.01c-0.31,0-1-0.03-1.58-0.03c-0.16,0-0.24,0.02-0.24,0.1c0,0.08,0.07,0.1,0.19,0.1
				c0.15,0,0.34,0.01,0.43,0.03c0.36,0.08,0.45,0.25,0.47,0.63c0.02,0.35,0.02,0.66,0.02,2.33V12.74L42.47,12.74z"/>
			<path class="st0" d="M28.1,14.59c-0.07,0.46-0.17,0.98-0.55,1.06c-0.2,0.04-0.3,0.04-0.4,0.04c-0.13,0-0.21,0.03-0.21,0.09
				c0,0.12,0.11,0.15,0.24,0.15c0.43,0,1.07-0.04,1.33-0.04c0.24,0,0.85,0.04,1.41,0.04c0.2,0,0.32-0.03,0.32-0.15
				c0-0.07-0.09-0.09-0.2-0.09c-0.13,0-0.32-0.01-0.56-0.07c-0.23-0.05-0.4-0.18-0.4-0.43c0-0.21,0.01-0.39,0.04-0.63l0.7-5.34h0.05
				c0.47,1.01,1.28,2.7,1.4,2.98c0.16,0.38,1.22,2.43,1.54,3.05c0.21,0.4,0.35,0.67,0.47,0.67c0.12,0,0.19-0.12,0.5-0.75l2.93-6.1
				h0.05l0.81,5.91c0.05,0.38,0.01,0.55-0.07,0.58c-0.09,0.04-0.15,0.08-0.15,0.15c0,0.08,0.08,0.12,0.39,0.15
				c0.54,0.04,2.39,0.08,2.73,0.08c0.19,0,0.35-0.04,0.35-0.15c0-0.08-0.09-0.09-0.21-0.09c-0.17,0-0.44-0.01-0.83-0.13
				c-0.4-0.12-0.54-0.51-0.66-1.36l-1.22-8.3c-0.04-0.28-0.12-0.42-0.24-0.42c-0.12,0-0.2,0.11-0.3,0.32l-3.65,7.67L30.02,5.9
				c-0.17-0.35-0.26-0.42-0.36-0.42c-0.11,0-0.19,0.12-0.23,0.35L28.1,14.59L28.1,14.59z"/>
		</g>
	</g>
	<g id="LOGOMARK">
		<path id="TUMBLEWEED" class="st2" d="M8.11,11.63c0.41,0.47,0.85,0.95,1.34,1.45c0.65,0.67,1.33,1.27,2.01,1.8
			c0.29-0.23,0.57-0.47,0.85-0.72c-0.57-0.47-1.14-0.98-1.67-1.54c-0.65-0.67-1.23-1.33-1.75-1.99C8.61,10.98,8.35,11.3,8.11,11.63z
			 M11.71,15.09c0.63,0.47,1.26,0.89,1.89,1.24c0.27-0.22,0.53-0.45,0.79-0.68c-0.65-0.39-1.31-0.85-1.94-1.35
			C12.21,14.56,11.97,14.83,11.71,15.09z M13.87,16.47c0.73,0.39,1.45,0.69,2.13,0.9c0.22-0.19,0.44-0.39,0.65-0.6
			c-0.69-0.28-1.41-0.63-2.12-1.05C14.32,15.98,14.1,16.23,13.87,16.47z M3.68,11.66c-0.24-0.39-0.46-0.78-0.67-1.16
			c-1.47,2.7-1.83,5.25-1.04,6.77C2.01,15.64,2.58,13.65,3.68,11.66z M5.22,13.86c-0.24-0.3-0.46-0.61-0.68-0.91
			c-0.98,2.13-1.25,4.11-0.77,5.47l0.15,0C4.01,17.06,4.44,15.48,5.22,13.86z M8.15,17.03c-0.34-0.3-0.67-0.63-1-0.96
			c-0.33-0.34-0.65-0.69-0.95-1.03c-0.44,1.11-0.68,2.16-0.71,3.09C6.3,17.89,7.22,17.52,8.15,17.03z M10.14,18.59
			c-0.49-0.33-0.98-0.7-1.47-1.1c-1.05,0.65-2.13,1.18-3.15,1.53c0.04,0.35,0.12,0.68,0.24,0.97C6.87,19.98,8.48,19.45,10.14,18.59z
			 M12.38,19.87c-0.54-0.25-1.08-0.55-1.62-0.88c-1.48,0.94-3.05,1.62-4.41,1.92c0.08,0.09,0.17,0.17,0.27,0.24
			C7.51,21.83,9.91,21.2,12.38,19.87z M19.16,17.65l0.01-0.15c-0.76-0.12-1.58-0.35-2.43-0.69c-0.16,0.21-0.33,0.42-0.51,0.63
			C17.33,17.75,18.33,17.83,19.16,17.65z M14.43,19.17c1.3,0.37,2.46,0.4,3.36,0.08c-0.82-0.1-1.72-0.34-2.64-0.7
			C14.91,18.76,14.68,18.97,14.43,19.17z M11.97,18.15c0.64,0.35,1.27,0.63,1.88,0.84c0.3-0.19,0.59-0.4,0.88-0.61
			c-0.62-0.26-1.25-0.58-1.88-0.95C12.57,17.68,12.27,17.92,11.97,18.15z M9.79,16.73c0.55,0.42,1.1,0.79,1.65,1.12
			c0.34-0.21,0.68-0.43,1.01-0.66c-0.57-0.36-1.15-0.76-1.71-1.21C10.44,16.24,10.12,16.49,9.79,16.73z M6.74,13.86
			c0.28,0.31,0.58,0.63,0.9,0.96c0.55,0.57,1.12,1.09,1.69,1.55c0.36-0.22,0.71-0.45,1.06-0.69c-0.49-0.41-0.97-0.86-1.43-1.34
			c-0.55-0.57-1.06-1.14-1.52-1.71C7.18,13.05,6.95,13.45,6.74,13.86z M1.91,3.44c0.04-0.05-0.52,1.67,0.96,4.84
			C3.2,7.81,3.57,7.35,3.97,6.9C3,4.39,3.06,2.47,3.72,1.71c0.04-0.05-0.49,1.57,0.83,4.55c0.36-0.38,0.72-0.75,1.08-1.09
			C4.68,2.67,4.73,0.76,5.39,0C5.43-0.04,4.9,1.59,6.24,4.61c4.62-4.14,8.93-5.07,10.32-4.17c0.08,0.05-3.81-0.74-9.78,5.25
			c0.2,0.38,0.43,0.77,0.7,1.18c4.9-4.73,9.61-5.82,11.06-4.87c0.08,0.05-4.07-0.79-10.39,5.87C8.37,8.18,8.61,8.5,8.87,8.83
			c5.09-5.18,10.09-6.38,11.6-5.4c0.08,0.05-4.26-0.83-10.82,6.34c0.45,0.52,0.93,1.06,1.47,1.61c2.61,2.69,5.58,4.27,7.9,4.59
			c-0.48-2.37-2.1-5.67-4.2-7.91c2.49,1.94,4.42,5.24,5.12,7.98c0.37,0,0.71-0.05,1.03-0.13c0.21-2.2-1.67-6.74-4.33-9.58
			c2.84,2.22,4.97,6.21,5.34,9.11c0.1-0.07,0.19-0.15,0.27-0.23c1.33-1.31-0.74-7.17-3.94-10.59c4.04,3.16,6.63,9.88,4.8,11.99
			c-0.3,0.35-0.71,0.6-1.2,0.77c-0.1,0.37-0.25,0.69-0.47,0.94c-0.33,0.38-0.79,0.65-1.35,0.81c-0.1,0.36-0.25,0.67-0.46,0.91
			c-1.13,1.3-3.71,1.3-6.55,0.13c-2.93,1.96-6.27,2.94-7.81,1.94c-0.39-0.26-0.7-0.62-0.92-1.07c-0.39-0.06-0.74-0.17-1.02-0.36
			c-0.43-0.28-0.76-0.69-0.98-1.21c-0.38-0.06-0.72-0.17-0.99-0.35c-2.09-1.36-1.76-5.84,0.97-10.06C1.19,6.33,1.21,4.24,1.91,3.44z
			"/>
	</g>
</g>
</svg>
